<mxfile host="app.diagrams.net" agent="Mozilla/5.0 (Windows NT 10.0; Win64; x64) AppleWebKit/537.36 (KHTML, like Gecko) Chrome/139.0.0.0 Safari/537.36" version="26.2.13">
  <diagram name="Page-1" id="xPjaqXdHsFq9fyVRfzro">
    <mxGraphModel dx="1044" dy="527" grid="1" gridSize="10" guides="1" tooltips="1" connect="1" arrows="1" fold="1" page="1" pageScale="1" pageWidth="850" pageHeight="1100" math="0" shadow="0">
      <root>
        <mxCell id="0" />
        <mxCell id="1" parent="0" />
        <mxCell id="fnCWxN6lmBJfOpHS74W_-1" value="" style="sketch=0;points=[[0,0,0],[0.25,0,0],[0.5,0,0],[0.75,0,0],[1,0,0],[0,1,0],[0.25,1,0],[0.5,1,0],[0.75,1,0],[1,1,0],[0,0.25,0],[0,0.5,0],[0,0.75,0],[1,0.25,0],[1,0.5,0],[1,0.75,0]];outlineConnect=0;fontColor=#232F3E;fillColor=#8C4FFF;strokeColor=#ffffff;dashed=0;verticalLabelPosition=bottom;verticalAlign=top;align=center;html=1;fontSize=12;fontStyle=0;aspect=fixed;shape=mxgraph.aws4.resourceIcon;resIcon=mxgraph.aws4.api_gateway;" vertex="1" parent="1">
          <mxGeometry x="280" y="200" width="78" height="78" as="geometry" />
        </mxCell>
        <mxCell id="fnCWxN6lmBJfOpHS74W_-22" style="edgeStyle=orthogonalEdgeStyle;rounded=0;orthogonalLoop=1;jettySize=auto;html=1;" edge="1" parent="1" source="fnCWxN6lmBJfOpHS74W_-2" target="fnCWxN6lmBJfOpHS74W_-3">
          <mxGeometry relative="1" as="geometry" />
        </mxCell>
        <mxCell id="fnCWxN6lmBJfOpHS74W_-2" value="" style="sketch=0;points=[[0,0,0],[0.25,0,0],[0.5,0,0],[0.75,0,0],[1,0,0],[0,1,0],[0.25,1,0],[0.5,1,0],[0.75,1,0],[1,1,0],[0,0.25,0],[0,0.5,0],[0,0.75,0],[1,0.25,0],[1,0.5,0],[1,0.75,0]];outlineConnect=0;fontColor=#232F3E;fillColor=#ED7100;strokeColor=#ffffff;dashed=0;verticalLabelPosition=bottom;verticalAlign=top;align=center;html=1;fontSize=12;fontStyle=0;aspect=fixed;shape=mxgraph.aws4.resourceIcon;resIcon=mxgraph.aws4.lambda;" vertex="1" parent="1">
          <mxGeometry x="520" y="200" width="78" height="78" as="geometry" />
        </mxCell>
        <mxCell id="fnCWxN6lmBJfOpHS74W_-3" value="" style="outlineConnect=0;dashed=0;verticalLabelPosition=bottom;verticalAlign=top;align=center;html=1;shape=mxgraph.aws3.s3;fillColor=#E05243;gradientColor=none;" vertex="1" parent="1">
          <mxGeometry x="520" y="400" width="76.5" height="93" as="geometry" />
        </mxCell>
        <mxCell id="fnCWxN6lmBJfOpHS74W_-4" value="" style="sketch=0;points=[[0,0,0],[0.25,0,0],[0.5,0,0],[0.75,0,0],[1,0,0],[0,1,0],[0.25,1,0],[0.5,1,0],[0.75,1,0],[1,1,0],[0,0.25,0],[0,0.5,0],[0,0.75,0],[1,0.25,0],[1,0.5,0],[1,0.75,0]];outlineConnect=0;fontColor=#232F3E;fillColor=#01A88D;strokeColor=#ffffff;dashed=0;verticalLabelPosition=bottom;verticalAlign=top;align=center;html=1;fontSize=12;fontStyle=0;aspect=fixed;shape=mxgraph.aws4.resourceIcon;resIcon=mxgraph.aws4.bedrock;" vertex="1" parent="1">
          <mxGeometry x="760" y="200" width="78" height="78" as="geometry" />
        </mxCell>
        <mxCell id="fnCWxN6lmBJfOpHS74W_-9" value="&lt;b&gt;Foundation Model&lt;/b&gt;" style="rounded=0;whiteSpace=wrap;html=1;" vertex="1" parent="1">
          <mxGeometry x="718" y="400" width="161" height="30" as="geometry" />
        </mxCell>
        <mxCell id="fnCWxN6lmBJfOpHS74W_-10" style="edgeStyle=orthogonalEdgeStyle;rounded=0;orthogonalLoop=1;jettySize=auto;html=1;exitX=1;exitY=0.25;exitDx=0;exitDy=0;exitPerimeter=0;entryX=0;entryY=0.25;entryDx=0;entryDy=0;entryPerimeter=0;" edge="1" parent="1" source="fnCWxN6lmBJfOpHS74W_-1" target="fnCWxN6lmBJfOpHS74W_-2">
          <mxGeometry relative="1" as="geometry" />
        </mxCell>
        <mxCell id="fnCWxN6lmBJfOpHS74W_-11" style="edgeStyle=orthogonalEdgeStyle;rounded=0;orthogonalLoop=1;jettySize=auto;html=1;exitX=0;exitY=0.75;exitDx=0;exitDy=0;exitPerimeter=0;entryX=1;entryY=0.75;entryDx=0;entryDy=0;entryPerimeter=0;" edge="1" parent="1" source="fnCWxN6lmBJfOpHS74W_-2" target="fnCWxN6lmBJfOpHS74W_-1">
          <mxGeometry relative="1" as="geometry" />
        </mxCell>
        <mxCell id="fnCWxN6lmBJfOpHS74W_-13" style="edgeStyle=orthogonalEdgeStyle;rounded=0;orthogonalLoop=1;jettySize=auto;html=1;exitX=1;exitY=0.25;exitDx=0;exitDy=0;exitPerimeter=0;entryX=0;entryY=0.25;entryDx=0;entryDy=0;entryPerimeter=0;" edge="1" parent="1" source="fnCWxN6lmBJfOpHS74W_-2" target="fnCWxN6lmBJfOpHS74W_-4">
          <mxGeometry relative="1" as="geometry" />
        </mxCell>
        <mxCell id="fnCWxN6lmBJfOpHS74W_-14" style="edgeStyle=orthogonalEdgeStyle;rounded=0;orthogonalLoop=1;jettySize=auto;html=1;exitX=0;exitY=0.75;exitDx=0;exitDy=0;exitPerimeter=0;entryX=1;entryY=0.75;entryDx=0;entryDy=0;entryPerimeter=0;" edge="1" parent="1" source="fnCWxN6lmBJfOpHS74W_-4" target="fnCWxN6lmBJfOpHS74W_-2">
          <mxGeometry relative="1" as="geometry" />
        </mxCell>
        <mxCell id="fnCWxN6lmBJfOpHS74W_-17" value="&lt;b&gt;API Gateway&lt;/b&gt;" style="text;html=1;align=center;verticalAlign=middle;whiteSpace=wrap;rounded=0;" vertex="1" parent="1">
          <mxGeometry x="280" y="170" width="80" height="30" as="geometry" />
        </mxCell>
        <mxCell id="fnCWxN6lmBJfOpHS74W_-18" value="&lt;b&gt;Lambda&lt;/b&gt;" style="text;html=1;align=center;verticalAlign=middle;whiteSpace=wrap;rounded=0;" vertex="1" parent="1">
          <mxGeometry x="520" y="170" width="80" height="30" as="geometry" />
        </mxCell>
        <mxCell id="fnCWxN6lmBJfOpHS74W_-19" value="&lt;b&gt;Bedrock&lt;/b&gt;" style="text;html=1;align=center;verticalAlign=middle;whiteSpace=wrap;rounded=0;" vertex="1" parent="1">
          <mxGeometry x="760" y="170" width="80" height="30" as="geometry" />
        </mxCell>
        <mxCell id="fnCWxN6lmBJfOpHS74W_-20" value="&lt;b&gt;S3&lt;/b&gt;" style="text;html=1;align=center;verticalAlign=middle;whiteSpace=wrap;rounded=0;" vertex="1" parent="1">
          <mxGeometry x="518.25" y="493" width="80" height="30" as="geometry" />
        </mxCell>
        <mxCell id="fnCWxN6lmBJfOpHS74W_-23" style="edgeStyle=orthogonalEdgeStyle;rounded=0;orthogonalLoop=1;jettySize=auto;html=1;exitX=0.25;exitY=1;exitDx=0;exitDy=0;exitPerimeter=0;entryX=0.384;entryY=0.067;entryDx=0;entryDy=0;entryPerimeter=0;" edge="1" parent="1" source="fnCWxN6lmBJfOpHS74W_-4" target="fnCWxN6lmBJfOpHS74W_-9">
          <mxGeometry relative="1" as="geometry" />
        </mxCell>
        <mxCell id="fnCWxN6lmBJfOpHS74W_-24" style="edgeStyle=orthogonalEdgeStyle;rounded=0;orthogonalLoop=1;jettySize=auto;html=1;exitX=0.25;exitY=1;exitDx=0;exitDy=0;exitPerimeter=0;entryX=0.384;entryY=0.067;entryDx=0;entryDy=0;entryPerimeter=0;" edge="1" parent="1">
          <mxGeometry relative="1" as="geometry">
            <mxPoint x="817" y="400" as="sourcePoint" />
            <mxPoint x="817" y="276" as="targetPoint" />
          </mxGeometry>
        </mxCell>
        <mxCell id="fnCWxN6lmBJfOpHS74W_-25" value="" style="verticalLabelPosition=bottom;html=1;verticalAlign=top;align=center;strokeColor=none;fillColor=#00BEF2;shape=mxgraph.azure.user;" vertex="1" parent="1">
          <mxGeometry x="40" y="214" width="47.5" height="50" as="geometry" />
        </mxCell>
        <mxCell id="fnCWxN6lmBJfOpHS74W_-26" style="edgeStyle=orthogonalEdgeStyle;rounded=0;orthogonalLoop=1;jettySize=auto;html=1;entryX=0;entryY=0.5;entryDx=0;entryDy=0;entryPerimeter=0;" edge="1" parent="1" source="fnCWxN6lmBJfOpHS74W_-25" target="fnCWxN6lmBJfOpHS74W_-1">
          <mxGeometry relative="1" as="geometry" />
        </mxCell>
        <mxCell id="fnCWxN6lmBJfOpHS74W_-28" value="&lt;b&gt;Prompt&lt;/b&gt;" style="text;html=1;align=center;verticalAlign=middle;whiteSpace=wrap;rounded=0;" vertex="1" parent="1">
          <mxGeometry x="140" y="210" width="60" height="30" as="geometry" />
        </mxCell>
        <mxCell id="fnCWxN6lmBJfOpHS74W_-29" value="&lt;b&gt;User&lt;/b&gt;" style="text;html=1;align=center;verticalAlign=middle;whiteSpace=wrap;rounded=0;" vertex="1" parent="1">
          <mxGeometry x="40" y="180" width="60" height="30" as="geometry" />
        </mxCell>
        <mxCell id="fnCWxN6lmBJfOpHS74W_-8" value="" style="shape=image;verticalLabelPosition=bottom;labelBackgroundColor=default;verticalAlign=top;aspect=fixed;imageAspect=0;image=data:image/png,iVBORw0KGgoAAAANSUhEUgAAAWcAAAA8CAYAAAC6hnsNAAAAAXNSR0IArs4c6QAAAARnQU1BAACxjwv8YQUAAAAJcEhZcwAADsMAAA7DAcdvqGQAABWrSURBVHhe7Z19eFTVncfBt/VlKw80RZnHh8BiaCARs4k2qalRaFYjLciqsKEGg8EYurMiS8ITE4MpUzBoNDKEJpld0nETQzaJxMjjUGuQnQaa+EL3eVasK6lPBbcrRZ+uRlEQxO8+5869M+eec+7MvfMSZoZznufzx8w9b/d373zn3N/5nXMnTEqxQSKRSCTxxQT2i2hz/wOr8etX9uL377yLD48dw9hnn+H0mTP45ptvQNLXX3+Nz0+cwJ/+90PsP/BbtLT9C7K/l8/VI5FIJOcTMRHn9OtyFKE9e/asIsDhpNE/vIe7l93L1S2RSCTnA1EXZzJK1kbF0Uhv//4dTP+bdK6dRMI2vxyVtQ5UFOfCJjgukUjikPTlqKh1oHLVYsxgj40DURPnHy2+W3FPxCJ99dVX+Ml9q7g2E4KlzfAM/w7DKp6nl/N5JAlOBrILi1BAk5chyCdJGHLq0OkN/G69HXXIZPPEmKiI8/IV90d1tCxKpH7SDtt2LKl8LnBxrDEE51JfHUu2DumPvezCEkFbiUY0bJPYZGBJlQs9nhHBOarsH4Gn142aRWmC8hSpRShxdMGzL07stNSFQfZcWLxD6N/RgJL5Ic4tUanuY865D5VsnhgTsTiTEXMkvmUr6fTp0/iObQbXh1gRDQHK3DCgO+Z1VzOujXuwedcIvPt8tK/j+xGPRMM240sU7ZxvR+tu9ryMGdwqflqyZZWismUAg/v5MufOTibF2c9etD64gK8j0Vnh1ttgdzMK2TwxJmJxPnnyJKuhMU3P9w9wfYgV0RGgDCzZ4EZnRx86WxxYmMq2sxbt1ONTZzV7PD6Jjm3GkyjZOdWO1kH2nAIo4s+IrVCc79S7u3jOlZ0E4rw/8KfmpWwYYA/q8wX1JDRpKFjdjHbyu93RjLJzcH4RibPnV79mtTNkIu4JIuifjo0pYXRW06lTp7h+xIoZeYwfkbCa+UftbeDzFBYhkxNhAwqb0E/VF7ZojDPjYptoEhU7p6HCzboxRtDfUodlnI+Z+KFLUeFwwVl7D18XK4AEnajHkTg/V6c/nl6OxgG9HQZbyvl6JBERkThbSYdH/4CSUn5S75ltv1DcFVbSkrv/gatn3Ah147Kk5urFKYv20WUgu7YPXqq+HgctZD9gZokzkH2XHZUOl+8f3Y8bjVXlKBCJnq79QH3kkbqiUR3RK6P6BpTdzgqMRazaRiEDhasccO6gzqelmY9sSf+B3o7z+cgX9g8jOz3QhjU7G7CQHe2OoLM6zEd61VaDA31wVpUqfdU/jcSxOBNYW3iasVA7ZnDPkWu4zO5ATa0DZQv5drl7sqMLzg12FPqvI4WwjTRkLrKjZmuXv47WxrVYQpWfcbsdlcx9L/abM5O83J9vNPsttk3Y4rzp8SdYzTRMu154kStPc1PBDy35rd0dnVwd44aZGzdIfv8j7jp2wkEENQmx0gWP0DdJ4d2DzcXMjaZrfy8aV9nh7GUmKf1EIDZcW6FtY1vUgB7dJJieQXc18rT8qaVweujjQ2hdRZ0rM7s+7HFhGfmzsmrnIBRs2aMrx88fWCA1AzOYP9OEEueUOnTSeeiJbl35PdhcmIaCdV0637r+yWUBylr2Cq6LSsj7egitVQ6072afarTyfagpXgvnLoPjw3vhZOtnz09og0j7Hdw2YYvzW4feZjVTmI4cOcqVFdE/sJstapiG9h/gyo8bpm5c4/x+ceZmg0VQomEqv2Digu1vKAbdKGHPwSxsW8Fss7AJ/aH+bJjQQ1uxixut+QQhDWUu+g9nLxo1YTNlNzPinIaabn25zmr2Bx0ZCSXOqQ700HkMxZk8HezRPbX4bKfVlYaKHUaiSeHtQ2VOkD5GCvu7CSnO0el3MNuELc6ffPIpq5nCtK7qEa6siBu/X8AWNUxkKThbftxgbwruogXP7xfnlU2+R6AB/SiWPOYGHo+aAkJZ1YXBgQG0NjpQcS/1uHVXNVp1I8q9aLzTuH2ljW4X6u2lKChcjrLGAebmIP/mgvMwA9uWoW1yUdNL5fMOoF5zY6QWYY2bsom3C2v8I8w0LNuqH6n01y/gYsn7tywOtGXVzoYsh/Nl2k6seKYhc77erUJjxs+eOOKchgKH/imC5PE/RbDlBfjFmYmK8Liq/e6AGSua0U89DXkaqevKtrGfhPY1o0a5r0tRuYMf0XrIfV9lx5LCIixzsPc9+wcdQpyj1W8BEYvzU89sw+efnwjqjiB7aLDlgmE2Vvr9949wZccN1rjsRWMxEmcNZmQX1kSVro4RtK4ybp/vby7qd9E3RwSiELItFd3k3AjaH2ZGoDkN1PEhOIupY6x7w7sHPQPU54EmcchTxHbWR3sMDw+gRie4rHjTmLNp3IrzbrfiC1UgvlXOLTaCdjt1DdnyL3ehZtVyar4lAzNUIdNNsHKjVxvKXNTxbofxHwB3rwVxuygUYTN931gU56j1O4htwhZnmpmzM5UNjpqczXhl8FW8e/gwjh//CKv/aS2XNxhmozeOHP2AKztusMblborg+WMizkwbujpM9DdqomCiLYKtlo79ZkWOoP9hsDbh3Bt+goR0RWxn5sfK/ZjjQJzZSVMWwSSqEPY6hoCsnvPPDYjKG9wHk1JKdTYbbC7l8ugWcQVxnfBthBJn1t7s9QwmzrHsd4CoiHO0OHPmDKvDwvTBB//DlR03LBhXlD8icU7NxbIql/KI7o879Qyg8zm93yrexZlbNRmCziq2Dt69QVBcHIL2FKzYWQgrvqydilDZHHCV6FcOsnnFRHwdQvnXBQIlhL2ORuwfQs9Wu16YReUN7gNOAENBR4SEbCOW4hzLfgeIK3E2G1JHth5ly44bFowryh+2OOdXoz3I4gfDOkz0N2JRsNAWwZo4G/SHW8TBPFqzmLWzIexjMGmPzRNAf44G58AQ8XWIlTjTbg0VMu9h6EdnyxvcB5ZFjq4nZBtxJM6W+h1gXMWZ7I2xbXursnMdcX385S//pyxIMevO0NLxjz7i6h43LBhXlD88cWYm0IZH4CGTH+oPpd6VyCPnAdSzj98hJ9MWMH5yFW8XKri8KqbsHBydH5E8zu+wG7oJzok4r+sKPFGJ2NUUGMEFw+R1NMR0eb3IDbrWctdeBx1rHLKN8RPn6PY7QEzFufynD+GNNw/i00/HTE/2mUkfffwx19a4YcG4ovxhiTOzus3rsgdtI97FeVJVkAlME+TVM5ECFF73WrFgmrFzKNj9FoTxsT7OiThHC7PX0QjT5e9BIz25u6vB/M5vIduIpTjHst8Boi7OWTd8X1nWTZZZxyolszgPugSjsVB1FCeYOOcwMbLaghE2HyE1TW+PfDqSw2evNbol1cziFA0zdg6JYMS+fwidG0q50b0UZ3PlS1poOwVfBGVLDRIRwrURS3GOZb8DRE2cU6+dq2yMPx4pqcR5lZsLQh/2P4p2YQ3JowstU+OClVjn5Shz9HG7msW9OIv2qCBxqt1dcDrUcK2OAfS/TPLQPxpGHDU3Rr4DPXSY26AbZazYm7GzGfKZlYjC+tjNj8zZNGrXIVJMX0cDrJQni5EYOyqT3C3EbdfgW9bfu1fZcEn32wnZRmzFOXb9DhAVcb5j0V0xHSmzKanEOWW5/hFJh3bD5KKyw8RqJJX4F2dBvLIhgR8N686gozMKmaXV/MjYjJ3NEWrZOY85m0btOkSKlesowmL5vGr9vidGWBO5GItzzPodIGJxJhsXRdOfbCYllzirkRgi4SCr47Q8qaXKfsRcnpf7UHNXuS7MKyHEmZB6D2o6+JA4Gk93g+9Hxbgz+B8bH+rGuTfM2Nks6gb5/cEiaMiG9B0uVLKbOBkQtesQKVavI0sY5fMedKEnmC0H98Bpz7XQRuzFOTb9DhCROK9bX8PqZshEhPzDD4+hb1e/MmGYk3uzvz6zoXTnVJxjCbWIILCjGo1v1y3yPsKa2jqULTL3o497yE5dZLc9LVRLWWJrcqe4cAhpZ4sIFn9Epd7zELKzoLY7mxayp9/JMT6JRb/DFmfy0lUrIXAk7+aGRq4emvNenCUSiUQlbHH+D+9vWM00TF9+eRLfzfhbrg4WsheHmSTFWSKRJDthiTMZNVvxM5P3DLJ1iDhzxtxIXIqzRCJJdsIS518+28nqpWF6/Y03ufJGmBV8Kc4SiSTZCUucya5wZpPZV0qR0bjZJMVZIpEkO2GJs1nfMElkO1G2vIiH1layRQ3T2GefceUlEokkmQhLnK0ktqwRZDMks8nqJv4SiUSSaMSNOJsNo9OSmegPiUQiSVRiLs733V/OlWd58uln2GIhU3fP81w9EolEkiyEJc5WFp/88Y/vc+Vp0q/LsVSflqRrQyKRJDNhifPnJ06wWhk0bW9xcXUQbv27O5QFKuGm4dde5+qUSCSSZCAscX7t9TdYnQyZ3jp0CBs3NeCRRx9T8P5miM0SViIvlWX7J5FIJIlOWOK8ruoRViPPWSITiWz/JOcz5dhMXrLaXIcC7phEkjiEJc6EL774gtXJc5KOHDnK9U1yPqNu9SjYIlIiSSTCFmfiooh2Isu3HZu2mF7G/duR17h+RZvM4mruzcM1tWuxjH5pY6yYVgvbg/2YqdCGqdMEeSQMUpwlyUHY4kx469DbrF6Gnc6ePYuyB/9RqffxLY3sYS51dfdw/YkF+nfB6fE8XRrb/ZRXjmLBS/AzrziPzyNhkOIsSQ4iEmcC2eci0kRcE3Ovv0FX77uHD7PZ/Gnb9lauH7FCE2f67SK2rHL1FUtDaF3Bl4kOSzGzJSDMCs6dgnwSPVKcJclBxOJMsLK3M51IfHOrawdXnwb7wlgyujazqCWaiMSZYKsdUL5XXjulvQlD9OYD3bE0ZM4v4t7ULGR2P3JUUc5pOa4K9FHMnK3PNznDjpRsO6bMIqPq2zDldrfqBnHjKuU7GyZNL8G0Zap7ZNlGTGbdI9NLMHXxTrVcP2aucGKqVlY9TtoQ84C+vmlLdXVds2Apd276Pudhcq4T05X8O2G78TYuvzWkOEuSg6iIMyFt7vXY+e99OHbsz0F9xkSQyWjb3dHJ1SGCuC9IIlEZwfaF/vH3vo0HfjgZr1Reiv2PXKLwyweuQGF2CpfXCqHEuX9LESYtbIaHCMJAExch4Cs/gvaH02Cr7vO5RAT5WCbbj/oE+YVDuCb3VeRqQr1aL3apTt/3t7QdwrwuZqT94nHMe/wo8l9kvu84gKu0Ou4dxa30MT+nMG+F2hbjXtEzhvQFal2Fr+LG59njwK3PHsC06YI+Nx/AnHY2/ylkae2GhRRnSXLgF+dd9svwxfaJ+EnBFC5TOMzLyUVJ6Sp/XDN5X2DqtXO5fJHSvOIKnPrFRMA1wZCen17OlTMLL84ZyL7XgU7yUkdvHypzyHe5qOklbo492FxIly9HK8k36EYJEXR7l+9tvSHFeSlmtalipbgyNiJdE96Wfkym8mpCp4hgx1HMaxpF9rOndIKX3z6qfJ/rF85TyFis1rFyFLd2H0d20yGkP9SPWXWjuEkT8/ZXkULy3HsIN/ee0hEQ9DHMvpmM9HciS6v/xTHkNI1iXtuYP98tzf2YIupzL2l7FPP+dSzQ5zaP7hytIcVZkhz4xTlr9lR81eITuTfrLsHM6VdzmeMNrb/fuCbgU+dEHbQ4f9h4IVfWLMYTgkPorFrsnxC0PewTXk/j4kD5FW7lTbuDLZorxqRbI5sfKU/bqAnuUcyiXBt+oeuiRsPT+pGtCR3tp35QHY2/BGStFLSrclWdJpSjSBUcn7JyFLeo9eTVbVS+S1mnuV7oics8XNOoCfFxzM4N0ucUJzJ6Rd9bRYqzJDnQuTVunBMQ6LNtExS3AFsgUSidP9kvzu/+/CLuuFk0cfa46FC6Bji71e+3qhEbqdVo9/4Ow7ubUaiWLWkhefaicSFfbzBS1gd8zH4hXnwQN6vil7vO7s8rFrqdyBKJM+We0Imzzk/sRuqmIOJceAB5mjBvahOMhpkygjbFfaaeDqQ4SyS8z5mMoE9SboKT2ydi491XcgXjnZz0qTFya2gsRuNuMoIeQI3i2tDEeAjOpeSz6tLY1YBMQb3GVGL2s5rQQexK0NwNhkJnQZwN/MRCoaWE+RbnTr8w6/rBlhG0Ke6zFGeJhIYTZ8LcWVfhs21618CYcyIeXRKfIv1cxeX+PxTtu6ofT/L3/fYbwp8UNBZnGyqf87k3fGJs808MKhEcqkujZ0MuVy4oCw7gJk4kWUK5CMyKM/VH0HUQtqylSiSFTTRyzqB8ymRCkYn4mN6k9U3vdhG5UsR9luIskdAIxVnjv352sU6gCadbJ2L3w5ci89qpXP7x5Jbrv4PXai/BN22Bvr33eMB98fqjlyjffb5tIlfWCsbirI6Mh/egXh05+ycGB93Y7BrBsLcLa3T+5dA+54C/dwxzFjNha1oEB3FtrK9U8ouFzqw4B/LdpPqO9X1QxXnaRqR3qPV1H8I1GXy/J68O9C3nIc3tUhKY2KREW9xnKc4SCU1QcSY8WfwtnQDS/OnJC/FE8be4MrGCjOi3lvy10i7bl7d+drEu75lW3/eRumTEPudmtO8eUb73utfqVglmbvCF2CnHXAHfMCF0KN0WzOlWBar3IKaxx6nYZ03AxEJnVpwpQXz+OK5b/yrmUBEWmjhPraYiKQQoddECTtwexBVDuUvyNzn9/RD3WYqzREITUpwJZJT6ydYLOEHUIJOH722+CNvvuyLqI+p1P5qEA49cooyA2XYJJFKDCDZdpvbOK5VjHzddwNVnFcNojX170dNoRx5bRpsYFKweDBlKd8dB5Gvi9kQbf5wOsXvpFObcYSR0ZsVZ9SPTcdAvjOG6TUfVaAyfOAdG0mL8dWW0CeKWgZsed4v901KcJRJDTImzxq/++VJOHEWcaJ6I//75RcpE3OrbJmP6NcHD8sgCkvWLJqGr4nIljO/YUxeGjF0mkDxL8r7N1Xd400X4um0CFmSF72sOH9XdQUVtBAjt1jgnTFuKKYrrpCSC+OIA2gpAZRUgtfhkfJDiLEkOLIkz4bbsFLzj4H3RoSAjXCKYRFDJZCOZwDNyl4SC1LV7zWVc3zTIYhoSSsd+Px7YVvkmApWVg4LjklgjxVmSHFgWZ43cuVPxn49drAglK56x4uvWCcqybBKPzfbn3FKEyqddaNzaBw9xaXi7UBFvo+Pzhmq07xuBd1cTFnLHJJLEIWxx1kidfjVeeOgynFYXr8QCssJvG+NXji+KUN+rThB6BlBfLNgASSKRSCwQsTjTPPb3Vyqr8cz4i4NBJhj//NQF+LfyyzErNbi/WiKRSJKRqIozzXdnXq2Ese1b/1fKBN1HTRfgy+0TFeElAkxcFGTikIyKSRgciZ0mi1yiHe0hkUgkiUjMxFkikUgk4SPFWSKRSOIQKc4SiUQSh/w/qSEbnVuZ4GAAAAAASUVORK5CYII=;" vertex="1" parent="1">
          <mxGeometry x="718" y="430" width="162" height="27.08" as="geometry" />
        </mxCell>
      </root>
    </mxGraphModel>
  </diagram>
</mxfile>
